<svg xmlns="http://www.w3.org/2000/svg" viewBox="0 0 83.608 26.458"><g stroke-width="1.926" style="line-height:125%;-inkscape-font-specification:'kalam Bold'" font-weight="bold" font-size="26.965" font-family="Pacifico" letter-spacing="0" word-spacing="0"><path d="M0 7.868q0-1.12.453-1.947.467-.84 1.294-1.425.84-.587 2-.96 1.174-.387 2.574-.6 1.4-.213 3.003-.293 1.6-.08 3.307-.08 2.32 0 4.853.187 2.547.186 5.308.68.64.133.895.48.267.346.267.773 0 .268-.12.52-.12.254-.32.468-.2.214-.466.347-.266.12-.56.12-1.027 0-2.147-.106-1.108-.106-2.32-.24-1.2-.133-2.48-.266-1.28-.132-2.64-.2-.24 1.495-.616 3.215-.373 1.72-.827 3.52-.44 1.787-.933 3.574-.48 1.773-.934 3.4-.453 1.614-.853 2.987-.387 1.375-.64 2.36-.107.455-.334.84-.212.376-.492.656-.266.28-.56.426-.292.16-.546.16-.76 0-1.252-.36-.494-.36-.494-1.16 0-.253.08-.56.174-1.214.454-2.387.293-1.173.68-2.44.386-1.28.88-2.707Q7 15.416 7.6 13.71q.602-1.72 1.295-3.788.707-2.067 1.52-4.6-.707.052-1.44.12-.72.066-1.414.186-.68.106-1.28.28-.585.173-1.04.44-.44.267-.705.64-.253.373-.253.88 0 .027-.04.294-.026.266-.226.586-.2.307-.64.574-.427.253-1.227.253T.91 9.308q-.44-.266-.64-.586Q.03 8.348 0 7.868z" style="-inkscape-font-specification:'Pacifico Bold'"/><path d="M24.138 17.31q.547-.72 1.227-1.547t1.413-1.534q.734-.72 1.454-1.19.733-.48 1.374-.48.16 0 .36.068.2.052.373.212.185.16.305.454.12.28.12.733 0 .906-.254 1.773-.252.853-.56 1.72-.292.854-.545 1.747-.24.894-.24 1.867 0 .534.16.854.16.32.413.32.32 0 .68-.133.36-.133.72-.346.36-.214.706-.48.347-.28.653-.574.733-.68 1.44-1.547l.226 3.547q-.24.186-.613.466-.36.28-.814.6-.44.307-.96.627t-1.054.575q-.52.24-1.054.4-.52.16-1 .16-.733 0-1.28-.387-.534-.4-.88-1-.347-.614-.52-1.334-.174-.72-.174-1.36 0-.427.107-.947.12-.533.28-1.067.174-.533.374-1.04.214-.507.387-.907.188-.4.32-.653.134-.254.174-.294l-.28-.04q-.226.147-.773.747-.532.6-1.213 1.52-.68.907-1.412 2.054-.72 1.134-1.307 2.347-.293.6-.48 1.054-.186.44-.373.733-.173.28-.386.43-.214.146-.547.146-.44 0-.694-.254-.254-.252-.387-.665-.134-.427-.174-.96-.04-.534-.04-1.094 0-.893.013-2.333.026-1.453.133-3.214.107-1.76.307-3.707.2-1.948.56-3.84.373-1.91.92-3.63.56-1.733 1.347-3.04.8-1.32 1.868-2.094Q25.605 0 26.992 0q.72 0 1.173.213.467.214.734.6.28.387.385.934.106.533.106 1.2 0 .987-.28 2.187-.28 1.2-.746 2.494-.453 1.294-1.04 2.627-.587 1.32-1.2 2.574-.614 1.24-1.214 2.345-.585 1.107-1.04 1.947zm1.187-8.242q.787-2.04 1.133-3.44.36-1.4.36-2.067 0-1.012-.266-1.012-.347 0-1.027 1.134-.68 1.134-1.6 3.295-.227.733-.427 1.52-.187.787-.347 1.574-.145.773-.28 1.533-.12.747-.21 1.427-.228 1.586-.348 3.106.36-.84.788-1.827l.84-1.95q.413-.972.773-1.826.375-.866.615-1.467z" style="-inkscape-font-specification:'Pacifico Bold'"/><path d="M37.7 25.605q-1.253 0-2.2-.454-.934-.45-1.56-1.21-.627-.775-.947-1.775-.307-1.013-.307-2.12 0-.747.147-1.574.147-.84.44-1.64.307-.8.76-1.52.453-.733 1.054-1.28.613-.56 1.36-.88.76-.333 1.68-.333.747 0 1.387.24t1.107.68q.48.427.75 1.04.265.614.265 1.374 0 .828-.413 1.654-.4.827-1.12 1.56-.72.734-1.72 1.308-.986.574-2.147.894.2.36.387.6.2.24.4.374.2.133.414.186.226.054.48.054.8 0 1.68-.32.894-.32 1.734-.8.84-.48 1.587-1.04.747-.574 1.267-1.08l1.72 1.786q-1.174 1.214-2.494 2.147-.573.4-1.24.788-.654.388-1.387.694-.72.295-1.506.482-.773.173-1.574.173zm-1.773-6.268q.48 0 1.04-.24.573-.253 1.053-.64.494-.387.827-.84.334-.454.334-.88 0-.6-.225-.987-.213-.387-.533-.387-.573 0-.986.213-.4.214-.68.56-.267.334-.44.774-.16.427-.254.867-.08.44-.107.853-.026.414-.026.707z" style="-inkscape-font-specification:'Pacifico Bold'"/><path d="M49.25 23.11q0-.172.026-.492.027-.32.08-.734.053-.413.12-.867l.133-.92q.145-1.067.36-2.294h-.2q-.16.2-.375.6-.2.4-.574 1.174-.372.774-.96 2.014-.572 1.23-1.492 3.08-.268.55-.628.75-.347.186-.774.186-.546 0-.88-.227-.333-.24-.52-.628-.173-.4-.24-.892-.053-.507-.053-1.04 0-.547.066-1.294.067-.747.174-1.574.107-.826.24-1.68.147-.867.293-1.654.16-.786.32-1.44.16-.653.294-1.067.134-.426.254-.68.12-.253.267-.387.16-.146.374-.186.214-.054.547-.054.508 0 .788.04.292.027.426.16.146.12.173.36.026.24.026.654 0 .227-.027.52-.014.293-.054.627-.04.333-.094.693-.04.347-.093.68-.12.787-.255 1.627l.147.16q.027-.04.28-.506l.64-1.12q.387-.654.827-1.36.44-.72.84-1.268.386-.547.813-.908.44-.36 1.04-.36.56 0 .96.334.4.32.4.92 0 .52-.066.987-.066.467-.173.907-.093.44-.2.866-.107.414-.2.854-.067.307-.08.387-.013.08-.013.106l.146.16q.027-.04.307-.493.28-.467.68-1.12.414-.654.867-1.374.467-.72.867-1.267.388-.535.774-.895.387-.374.947-.374.628 0 1.055.335.44.32.44.92 0 .92-.092 1.747-.094.827-.214 1.627t-.214 1.626q-.093.813-.093 1.734 0 .72.187 1.174.187.454.454.454.28 0 .586-.12.307-.12.627-.307.32-.185.628-.425.307-.253.587-.52.653-.614 1.293-1.387l.227 3.147q-.587.467-1.174.974-.572.492-1.225.906-.64.4-1.414.666-.774.255-1.747.255-.48 0-.814-.307-.32-.32-.52-.88t-.294-1.32q-.08-.76-.08-1.654 0-.84.053-1.774.066-.947.173-1.907h-.2l-2.708 6.895q-.346.56-.773.76-.427.187-.987.187-.427 0-.68-.227-.253-.24-.4-.6-.133-.373-.187-.814-.04-.44-.04-.853z" style="-inkscape-font-specification:'Pacifico Bold'"/><path d="M65.706 25.605q-1.254 0-2.2-.454-.934-.45-1.56-1.21-.628-.775-.948-1.775-.307-1.013-.307-2.12 0-.747.15-1.574.146-.84.44-1.64.306-.8.76-1.52.453-.733 1.053-1.28.613-.56 1.36-.88.76-.333 1.68-.333.747 0 1.387.24t1.106.68q.48.427.747 1.04.267.614.267 1.374 0 .828-.414 1.654-.4.827-1.12 1.56-.72.734-1.72 1.308-.987.574-2.147.894.2.36.384.6.2.24.4.374.2.133.414.186.226.054.48.054.8 0 1.68-.32.893-.32 1.733-.8.84-.48 1.588-1.04.747-.574 1.267-1.08l1.72 1.786q-1.173 1.214-2.494 2.147-.572.4-1.24.788-.652.388-1.386.694-.72.295-1.507.482-.774.173-1.574.173zm-1.774-6.268q.48 0 1.04-.24.574-.253 1.054-.64.493-.387.827-.84.333-.454.333-.88 0-.6-.227-.987-.215-.387-.535-.387-.574 0-.987.213-.4.214-.68.56-.268.334-.44.774-.16.427-.255.867-.08.44-.106.853-.028.414-.028.707z" style="-inkscape-font-specification:'Pacifico Bold'"/></g><path fill="#dc143c" d="M77.09 6.387c-3.56 0-6.446 2.588-6.446 5.78 0 1.176.393 2.27 1.066 3.183-.088 1.055-.343 2.54-1.066 3.264 0 0 2.21-.31 3.707-1.215h.007c.614-.4 1.23-.81 1.357-.917.067-.093.196-.122.296-.06.065.038.106.11.108.187.002.14-.002.176-1.242.984.69.227 1.436.353 2.215.353 3.56 0 6.448-2.588 6.448-5.78s-2.886-5.78-6.446-5.78z"/><g fill="#fff" stroke-width=".136" style="line-height:125%;-inkscape-font-specification:'Roboto Bold'" font-weight="bold" font-size="1.901" font-family="Roboto" letter-spacing="0" word-spacing="0"><path d="M75.43 15.42h-1.117v-4.165h1.117zm-1.182-5.243q0-.25.165-.412.17-.162.458-.162.286 0 .456.162.17.162.17.412 0 .254-.174.416-.17.16-.45.16-.282 0-.455-.16-.17-.162-.17-.416zM76.176 13.307q0-.974.435-1.552.44-.577 1.2-.577.607 0 1.003.454V9.507h1.117v5.913h-1.005l-.054-.443q-.415.52-1.07.52-.734 0-1.18-.577-.444-.582-.444-1.613zm1.113.08q0 .586.203.897.204.312.593.312.516 0 .727-.435V12.52q-.207-.435-.72-.435-.804 0-.804 1.305z" style="-inkscape-font-specification:'Roboto Bold'"/></g></svg>